<svg width="743" height="743" viewBox="0 0 743 743" fill="none" xmlns="http://www.w3.org/2000/svg">
<path d="M371.499 91.875C457.54 91.8752 527.29 161.626 527.29 247.667C527.29 333.708 457.54 403.458 371.499 403.458C285.458 403.458 215.707 333.708 215.707 247.667C215.707 161.626 285.458 91.875 371.499 91.875ZM313.3 227.051C305.399 227.051 299 233.45 299 241.351V298.551C299 306.451 305.399 312.85 313.3 312.851H427.7C435.601 312.85 442 306.451 442 298.551V241.351C442 233.45 435.601 227.051 427.7 227.051H313.3ZM325.147 298.551C313.515 298.551 313.3 295.834 313.3 286.703L325.147 298.551ZM424.232 269.95L395.632 298.551H345.368L316.768 269.95L345.368 241.351H395.632L424.232 269.95ZM427.7 286.703C427.7 298.336 424.983 298.551 415.853 298.551L427.7 286.703ZM370.5 255.65C362.599 255.65 356.2 262.05 356.2 269.95C356.2 277.851 362.599 284.25 370.5 284.25C378.401 284.25 384.8 277.851 384.8 269.95C384.8 262.05 378.401 255.65 370.5 255.65ZM313.3 253.198C313.3 241.551 316.046 241.351 325.147 241.351L313.3 253.198ZM415.853 241.351C427.5 241.351 427.7 244.096 427.7 253.198L415.853 241.351ZM327.6 184.15C319.699 184.151 313.3 190.55 313.3 198.45V205.601C313.3 209.547 316.503 212.75 320.45 212.75C324.397 212.75 327.6 209.547 327.6 205.601C327.6 201.654 330.803 198.45 334.75 198.45H406.25C410.197 198.45 413.4 201.654 413.4 205.601C413.4 209.547 416.603 212.75 420.55 212.75C424.497 212.75 427.7 209.547 427.7 205.601V198.45C427.7 190.55 421.301 184.151 413.4 184.15H327.6Z" fill="#E93F3F"/>
<path d="M619.165 650.125C619.165 584.439 593.072 521.444 546.625 474.998C500.179 428.551 437.184 402.458 371.499 402.458C305.813 402.458 242.818 428.551 196.372 474.998C149.925 521.444 123.832 584.439 123.832 650.125" fill="#E93F3F" stroke="#E93F3F" stroke-width="2" stroke-linecap="round" stroke-linejoin="round"/>
</svg>
