<svg width="743" height="743" viewBox="0 0 743 743" fill="none" xmlns="http://www.w3.org/2000/svg">
<path d="M371.499 91.875C457.54 91.8752 527.29 161.626 527.29 247.667C527.29 333.708 457.54 403.458 371.499 403.458C285.458 403.458 215.707 333.708 215.707 247.667C215.707 161.626 285.458 91.875 371.499 91.875ZM289.505 312.041C286.875 312.45 284.292 312.852 281.774 313.243L285.263 316.534L302.658 314.358L302.511 310.015C298.064 310.708 293.685 311.389 289.505 312.041ZM355.946 301.701C355.724 301.736 355.497 301.771 355.265 301.807L357.729 305.408L359.522 311.677L368.028 313.41L366.94 308.653L369.52 303.211L376.212 299.401L377.542 298.337L355.946 301.701ZM448.209 211.143L449.303 213.471L440.01 219.357L437.167 222.965L434.507 224.94L427.311 229.214L423.34 228.005L426.404 220.769L426.09 220.332C420.059 222.838 414.84 225.007 410.922 226.637L410.178 229.436L407.536 229.859L406.94 228.293C404.739 229.21 403.448 229.751 403.298 229.817L402.241 230.278L405.573 231.453C407.399 232.105 417.28 235.61 427.521 239.223L446.141 245.802L444.739 246.263L443.338 246.725L444.664 247.272L446.006 247.825L434.339 251.637C427.936 253.742 413.056 258.611 401.285 262.473C389.519 266.319 370.943 272.404 360.015 275.973C349.096 279.538 340.143 282.495 340.106 282.562C340.075 282.602 342.3 283.393 345.048 284.314C356.963 288.268 379.469 295.869 379.509 295.952C379.526 295.994 378.727 296.164 377.712 296.311L375.87 296.603L377.673 297.315L378.44 297.618L384.456 292.81L391.552 294.967L393.467 293.314L398.104 296.781L403.263 295.088L404.009 290.795L409.049 289.362L413.482 288.477L419.752 288.758L425.174 291.822L429.165 288.678L436.441 294.24L436.361 299.986L440.877 306.759L449.483 311.717L449.968 302.284L446.5 294.785L440.11 283.84L441.703 276.543L448.134 269.267L450.068 265.154L460.005 252.656L457.909 249.271L457.97 249.25L458.171 249.21L458.534 249.13L458.635 249.109L455.228 246.045L455.49 242.559L454.334 241.402L457.849 241.691L458.877 241.187L459.522 238.688L459.644 238.668L459.684 238.647L456.579 232.116L457.909 230.686L461.84 231.271L461.033 224.679L462.042 224.376L468.491 221.01L470.266 218.369L470.468 218.49L470.972 219.236L472.766 217.079L470.185 212.02L470.145 210.911L473.552 205.812L481.292 197.85L480.905 197.573C473.376 200.698 462.871 205.059 448.209 211.143ZM289.214 291.862L283.268 294.685L281.142 297.864C285.551 295.584 289.636 293.471 293.176 291.639L291.652 290.996L289.214 291.862ZM280.708 183.779L274.096 181.521L273.935 192.205L276.253 193.254L272.766 195.592L266.054 208.412L265.932 213.028L262.707 220.546L262.908 228.972L269.439 255.257L276.999 259.49L280.506 264.167L281.191 268.662L288.15 269.572C295.23 266.379 311.018 259.242 328.097 251.519C349.813 241.71 367.577 233.651 367.557 233.609C367.525 233.564 364.645 232.442 361.158 231.092C357.649 229.733 352.741 227.837 350.235 226.862C347.725 225.903 342.392 223.841 338.375 222.307C334.358 220.772 330.398 219.223 329.553 218.877L328.032 218.244L329.15 217.753L330.26 217.241L329.236 216.713L328.214 216.185L336.571 212.275C344.378 208.632 360.546 201.088 377.405 193.223L377.22 193.133L370.064 193.113L346.219 191.903L316.769 187.892L304.755 185.433L301.389 184.667L282.078 179.466L280.708 183.779Z" fill="#E93F3F"/>
<path d="M619.165 650.125C619.165 584.439 593.072 521.444 546.625 474.998C500.179 428.551 437.184 402.458 371.499 402.458C305.813 402.458 242.818 428.551 196.372 474.998C149.925 521.444 123.832 584.439 123.832 650.125" fill="#E93F3F" stroke="#E93F3F" stroke-width="2" stroke-linecap="round" stroke-linejoin="round"/>
</svg>
