<svg width="743" height="743" viewBox="0 0 743 743" fill="none" xmlns="http://www.w3.org/2000/svg">
<path d="M371.499 91.875C457.54 91.8752 527.29 161.626 527.29 247.667C527.29 333.708 457.54 403.458 371.499 403.458C285.458 403.458 215.707 333.708 215.707 247.667C215.707 161.626 285.458 91.875 371.499 91.875ZM383.084 143.745C369.054 142.078 354.831 143.216 341.369 147.08C330.803 150.114 320.756 154.803 311.596 160.979C298.257 169.971 287.126 181.902 279.066 195.85C277.224 199.038 275.269 202.904 273.809 206.244C266.188 223.673 263.442 242.851 265.844 261.88C268.465 282.648 277.292 302.218 291.167 318.028C294.072 321.339 297.653 324.921 300.943 327.809C305.757 332.033 310.836 335.737 316.382 339.065C324.118 343.708 332.62 347.404 341.318 349.905C349.65 352.301 358.445 353.678 367.13 353.948C382.796 354.435 398.285 351.483 412.472 345.306C414.524 344.412 415.309 344.045 417.396 343.008C426.454 338.504 434.549 332.921 442.116 325.958C443.466 324.716 446.701 321.48 447.958 320.113C455.526 311.888 461.589 302.856 466.213 292.919C474.563 274.975 477.66 254.957 475.156 235.118C472.546 214.44 463.767 194.911 449.994 179.149C432.76 159.425 408.93 146.816 383.084 143.745ZM366.949 161.059C368.441 160.995 372.56 160.995 374.052 161.059C382.62 161.427 390.652 162.913 398.627 165.605C409.702 169.345 420.254 175.521 428.951 183.356C431.932 186.042 435.018 189.231 437.508 192.196C448.881 205.742 455.843 222.216 457.581 239.698C457.899 242.9 457.97 244.482 457.97 248.499C457.97 252.027 457.946 252.789 457.762 255.241C456.986 265.559 454.326 275.806 449.996 285.16C449.297 286.67 447.978 289.281 447.218 290.658C444.188 296.147 440.489 301.432 436.441 306.053C429.042 314.501 420.17 321.421 410.256 326.477C398.943 332.245 386.925 335.386 374.052 335.939C372.719 335.997 368.136 335.994 366.769 335.935C361.805 335.721 356.508 335.039 351.792 334.008C341.879 331.84 332.568 328.031 323.954 322.621C314.932 316.955 306.961 309.622 300.511 301.057C295.549 294.467 291.433 286.979 288.554 279.301C285.645 271.545 283.871 263.517 283.239 255.241C283.056 252.838 283.031 252.032 283.031 248.499C283.031 244.966 283.056 244.16 283.239 241.757C283.69 235.854 284.714 230.119 286.328 224.45C290.114 211.155 297.022 198.962 306.555 188.748C307.563 187.668 309.966 185.27 311.004 184.309C320.048 175.932 330.834 169.501 342.373 165.605C350.346 162.914 358.382 161.427 366.949 161.059ZM403.955 266.05L364.467 305.536L359.687 300.756L354.905 295.976V327.691H370.765L386.623 327.692L381.907 322.977C379.313 320.383 377.191 318.225 377.191 318.183C377.264 318.068 394.988 300.31 416.641 278.658L456.091 239.21L449.768 232.886L443.443 226.562L403.955 266.05ZM332.625 273.696L323.099 264.17V280.005C323.099 290.515 323.116 295.844 323.15 295.855C323.267 295.87 354.642 295.866 354.751 295.852C354.765 295.849 352.648 293.72 350.048 291.119C347.447 288.518 345.329 286.363 345.34 286.329C345.365 286.281 363.12 268.509 384.808 246.822L424.256 207.376L411.602 194.722L332.625 273.696ZM379.722 162.933C379.691 162.951 361.917 180.716 340.223 202.409L300.778 241.852L296.01 237.082L291.24 232.313V248.143C291.24 256.849 291.25 263.983 291.262 263.995C291.285 264.007 298.415 264.017 307.114 264.017H322.944L318.209 259.281C315.619 256.692 313.498 254.553 313.475 254.508C313.475 254.487 331.235 236.708 352.943 215.001L392.413 175.534L386.095 169.216C382.554 165.676 379.76 162.921 379.722 162.933Z" fill="#E93F3F"/>
<path d="M619.165 650.125C619.165 584.439 593.072 521.444 546.625 474.998C500.179 428.551 437.184 402.458 371.499 402.458C305.813 402.458 242.818 428.551 196.372 474.998C149.925 521.444 123.832 584.439 123.832 650.125" fill="#E93F3F" stroke="#E93F3F" stroke-width="2" stroke-linecap="round" stroke-linejoin="round"/>
</svg>
