<svg width="743" height="743" viewBox="0 0 743 743" fill="none" xmlns="http://www.w3.org/2000/svg">
<path d="M371.499 91.875C457.54 91.8752 527.29 161.626 527.29 247.667C527.29 333.708 457.54 403.458 371.499 403.458C285.458 403.458 215.707 333.708 215.707 247.667C215.707 161.626 285.458 91.875 371.499 91.875ZM370.826 150.125C363.156 150.125 356.58 158.136 356.58 167.945H307.613V175.442L278.266 240.445H286.226L313.58 179.727L340.935 240.445H348.895L319.714 175.805H363.322V326.387C356.035 326.387 307.693 341.58 307.613 341.604V349.5H434.923V342.105C434.804 342.067 387.548 326.735 378.279 326.395V175.805H423.323L394.149 240.445H402.109L429.464 179.727L456.818 240.445H464.778L434.938 174.376V167.945H385.072C385.072 158.593 378.939 150.125 370.826 150.125ZM349.395 247.848C349.189 247.877 277.772 247.877 277.779 247.848C277.779 267.372 291.823 286.142 313.587 286.143C335.852 286.143 349.395 267.372 349.395 247.848ZM466.272 247.848C466.272 247.884 394.649 247.884 394.649 247.848C394.649 267.372 408.693 286.143 430.465 286.143C452.729 286.142 466.272 267.372 466.272 247.848Z" fill="#E93F3F"/>
<path d="M619.165 650.125C619.165 584.439 593.072 521.444 546.625 474.998C500.179 428.551 437.184 402.458 371.499 402.458C305.813 402.458 242.818 428.551 196.372 474.998C149.925 521.444 123.832 584.439 123.832 650.125" fill="#E93F3F" stroke="#E93F3F" stroke-width="2" stroke-linecap="round" stroke-linejoin="round"/>
</svg>
