<svg width="743" height="743" viewBox="0 0 743 743" fill="none" xmlns="http://www.w3.org/2000/svg">
<path d="M371.499 91.875C457.54 91.8752 527.29 161.626 527.29 247.667C527.29 333.708 457.54 403.458 371.499 403.458C285.458 403.458 215.707 333.708 215.707 247.667C215.707 161.626 285.458 91.875 371.499 91.875ZM371.5 128.917C323.198 128.917 284.042 168.073 284.042 216.375C284.042 261.968 318.93 299.412 363.466 303.468V310.073H344.729C340.294 310.073 336.698 313.669 336.698 318.104C336.698 322.54 340.294 326.136 344.729 326.136H363.467L363.469 355.584C363.469 360.019 367.065 363.614 371.501 363.614C375.936 363.614 379.531 360.018 379.531 355.582L379.529 326.136H398.271C402.706 326.136 406.302 322.54 406.302 318.104C406.302 313.669 402.706 310.073 398.271 310.073H379.528V303.469C424.067 299.415 458.959 261.97 458.959 216.375C458.959 168.073 419.802 128.917 371.5 128.917ZM371.5 153.917C405.995 153.917 433.959 181.88 433.959 216.375C433.959 250.87 405.995 278.834 371.5 278.834C337.005 278.834 309.042 250.87 309.042 216.375C309.042 181.881 337.006 153.917 371.5 153.917Z" fill="#E93F3F"/>
<path d="M619.165 650.125C619.165 584.439 593.072 521.444 546.625 474.998C500.179 428.551 437.184 402.458 371.499 402.458C305.813 402.458 242.818 428.551 196.372 474.998C149.925 521.444 123.832 584.439 123.832 650.125" fill="#E93F3F" stroke="#E93F3F" stroke-width="2" stroke-linecap="round" stroke-linejoin="round"/>
</svg>
