<svg width="173" height="173" viewBox="0 0 173 173" fill="none" xmlns="http://www.w3.org/2000/svg">
<g clip-path="url(#clip0_1113_540)">
<mask id="mask0_1113_540" style="mask-type:luminance" maskUnits="userSpaceOnUse" x="0" y="0" width="173" height="173">
<path d="M172.435 0H0V172.435H172.435V0Z" fill="white"/>
</mask>
<g mask="url(#mask0_1113_540)">
<mask id="mask1_1113_540" style="mask-type:luminance" maskUnits="userSpaceOnUse" x="0" y="0" width="173" height="173">
<path d="M172.435 0H0V172.435H172.435V0Z" fill="white"/>
</mask>
<g mask="url(#mask1_1113_540)">
<path d="M0.304688 57.5812V115.163H86.3691H172.434V57.5812V0H86.3691H0.304688V57.5812ZM89.7994 7.27992C95.3533 9.23356 98.4773 13.5727 97.7627 18.282C97.436 20.3385 96.6191 21.8808 94.945 23.5466C92.3108 26.1791 89.1257 27.3716 84.8376 27.3716C82.1628 27.3716 80.5907 27.0425 78.3651 26.0144C74.8123 24.3691 72.5458 21.6341 71.9741 18.282C71.2797 14.2719 73.73 10.2001 78.0997 8.06137C80.5702 6.86861 82.0403 6.5807 85.3482 6.66296C87.8187 6.72466 88.4108 6.80694 89.7994 7.27992ZM114.751 31.5668C117.854 32.3689 120.877 34.3019 122.796 36.7696C123.286 37.4073 123.429 37.7156 123.245 37.8184C123.123 37.9008 122.163 38.0859 121.142 38.2298C113.424 39.258 105.848 43.7617 100.519 50.4865C92.8419 60.1931 91.6167 71.4008 97.5991 77.4262C99.8454 79.7088 102.704 80.8192 106.338 80.8192C110.545 80.8192 115.997 78.8658 120.161 75.8836C124.96 72.4287 129.187 68.5215 139.498 58.013C143.582 53.8798 146.91 50.6097 146.91 50.7332C146.91 51.3502 144.337 57.2112 141.866 62.2082C134.679 76.7269 126.472 86.7009 117.405 91.9038C113.158 94.351 108.85 95.5024 104.031 95.5024C101.887 95.4819 100.907 95.3996 99.5391 95.0296C92.0045 93.0759 86.7163 86.4951 84.4497 76.1922C84.0616 74.3824 83.6124 70.2901 83.6124 68.4803C83.6124 65.0254 84.3884 60.563 85.6951 56.4911C88.5333 47.6074 94.2915 39.4224 100.682 35.1452C103.398 33.3354 106.461 31.9782 109.034 31.464C110.422 31.1965 113.464 31.2379 114.751 31.5668ZM83.5309 35.5154C83.4698 37.2014 83.3064 39.4431 83.2041 40.5124C82.4895 47.5457 82.3262 49.0881 82.0608 51.1034C81.6727 54.2086 80.6722 60.4602 80.1619 62.9279C79.5084 66.1977 78.1812 71.812 77.6911 73.3131C77.5687 73.6422 77.1604 74.9378 76.7521 76.1718C72.9745 87.8937 65.8894 97.7233 57.6809 102.741C54.3935 104.736 51.6371 105.744 46.6549 106.772C44.6336 107.183 39.1206 107.122 37.4871 106.649C34.3017 105.764 32.0556 104.263 30.6466 102.042C28.9521 99.3892 28.2784 95.7905 28.9112 92.7056C30.1363 86.5979 36.2821 79.4827 43.0816 76.2746C44.0616 75.8015 45.1643 75.4108 45.4911 75.3901C46.1443 75.3697 46.0627 75.2669 47.7371 78.1871L48.3088 79.1741L47.7371 79.6264C44.1639 82.629 42.5509 85.3023 42.5304 88.2842C42.51 90.8754 43.5715 92.2533 46.2057 93.0759C49.6769 94.1247 53.8832 92.3152 57.9463 88.017C61.969 83.8014 65.9912 77.2411 68.6049 70.7219C69.1155 69.4266 69.6258 68.1926 69.7278 67.9664C70.1159 67.1438 71.7698 61.8791 72.2801 59.9049C72.5662 58.7944 72.8927 57.5604 72.995 57.17C73.097 56.7793 73.4644 55.2367 73.8116 53.7767C74.1588 52.296 74.5264 50.7332 74.6285 50.2806C75.2817 47.5457 77.6707 36.3377 78.1199 33.9317C78.2423 33.3149 78.3855 32.7391 78.4466 32.6361C78.4875 32.554 79.6923 32.4924 81.101 32.4924H83.6738L83.5309 35.5154Z" fill="white"/>
<mask id="mask2_1113_540" style="mask-type:luminance" maskUnits="userSpaceOnUse" x="3" y="46" width="14" height="23">
<path d="M16.8563 46.4424H3.44531V68.7681H16.8563V46.4424Z" fill="white"/>
</mask>
<g mask="url(#mask2_1113_540)">
<path d="M9.84411 46.8293C9.03532 47.9004 8.63652 48.7934 8.60123 49.6062C8.57006 50.2933 8.74123 50.7886 9.17239 51.2528C9.41706 51.5143 9.85118 51.825 10.0682 51.891C10.1912 51.926 10.2159 51.919 10.4711 51.7758C10.8529 51.5594 11.3011 51.113 11.4693 50.7782C11.7352 50.2446 11.7811 49.5539 11.5881 48.9017C11.4064 48.2735 10.8282 47.269 10.2506 46.5645L10.1417 46.4316L9.84411 46.8293Z" fill="white"/>
<path d="M5.44874 51.5561C4.97934 51.6296 4.39821 51.7865 3.88707 51.9716L3.44531 52.1353L3.50885 52.2399C3.68354 52.5402 4.27528 53.2729 4.61878 53.6113C5.39225 54.3821 6.07518 54.7205 6.84218 54.7169C7.43392 54.7135 7.95565 54.4901 8.44562 54.0331L8.7015 53.7887L8.67678 53.6142C8.64208 53.3387 8.52974 53.0109 8.37209 52.7041C8.08858 52.1565 7.54919 51.7412 6.91216 51.5879C6.58278 51.5074 5.84752 51.4903 5.44874 51.5561Z" fill="white"/>
<path d="M13.5556 51.5561C13.0198 51.6506 12.5227 51.9227 12.2075 52.2888C11.9375 52.6032 11.6857 53.1782 11.6263 53.6142L11.6016 53.7887L11.8574 54.0331C12.3474 54.4901 12.8692 54.7136 13.4609 54.7169C14.228 54.7205 14.9108 54.3821 15.6844 53.6111C16.0279 53.2727 16.6195 52.5403 16.7943 52.2399L16.8572 52.1353L16.4161 51.9714C15.306 51.5667 14.3086 51.4205 13.5556 51.5561Z" fill="white"/>
<path d="M10.0122 54.1406C9.84043 54.2312 9.7428 54.3187 9.59928 54.5103C9.1893 55.0515 8.89875 55.9162 8.50994 57.7475C7.71526 61.4665 6.70004 61.8383 5.25014 63.6005C5.09249 63.7918 4.92777 63.9805 4.886 64.0152C4.84719 64.0541 4.8125 64.0955 4.8125 64.1097C4.8125 64.162 5.12778 64.3223 5.4007 64.4129C5.77537 64.5351 6.40592 64.5421 6.84356 64.4235C7.37588 64.2806 7.90761 63.9982 8.35936 63.6075L8.56286 63.4329L8.53464 63.5686C8.47522 63.8511 8.50994 64.3153 8.60814 64.612C8.81108 65.2013 9.19989 65.7906 9.72162 66.29C10.1316 66.6836 10.1281 66.6807 10.3345 66.5197C10.9368 66.042 11.5286 65.1907 11.7315 64.5069C11.798 64.2806 11.8191 63.7954 11.7704 63.5686L11.7421 63.4329L11.945 63.6075C12.4003 63.9982 12.9291 64.2837 13.4614 64.4235C13.8885 64.5388 14.4978 64.5388 14.8619 64.4235C15.1248 64.343 15.3137 64.2594 15.436 64.1654C15.5024 64.1162 15.496 64.1028 15.2784 63.8653C13.7484 62.1596 12.6561 61.7037 11.8157 57.8314C11.5498 56.6106 11.4339 56.157 11.2551 55.6371C10.9715 54.8177 10.6598 54.3294 10.3063 54.1512C10.1487 54.0673 10.1451 54.0673 10.0122 54.1406Z" fill="white"/>
</g>
<mask id="mask3_1113_540" style="mask-type:luminance" maskUnits="userSpaceOnUse" x="156" y="46" width="13" height="23">
<path d="M168.947 46.4424H156.227V68.7681H168.947V46.4424Z" fill="white"/>
</mask>
<g mask="url(#mask3_1113_540)">
<path d="M162.299 46.8293C161.532 47.9004 161.154 48.7934 161.121 49.6062C161.091 50.2933 161.253 50.7886 161.661 51.2528C161.894 51.5143 162.306 51.825 162.512 51.891C162.629 51.926 162.651 51.919 162.894 51.7758C163.256 51.5594 163.681 51.113 163.841 50.7782C164.092 50.2446 164.136 49.5539 163.953 48.9017C163.781 48.2735 163.232 47.269 162.685 46.5645L162.582 46.4316L162.299 46.8293Z" fill="white"/>
<path d="M158.127 51.5561C157.682 51.6296 157.13 51.7865 156.645 51.9716L156.227 52.1353L156.286 52.2399C156.453 52.5402 157.014 53.2729 157.339 53.6113C158.073 54.3821 158.721 54.7205 159.449 54.7169C160.01 54.7135 160.504 54.4901 160.97 54.0331L161.212 53.7887L161.188 53.6142C161.156 53.3387 161.049 53.0109 160.9 52.7041C160.631 52.1565 160.119 51.7412 159.516 51.5879C159.203 51.5074 158.505 51.4903 158.127 51.5561Z" fill="white"/>
<path d="M165.814 51.5561C165.306 51.6506 164.835 51.9227 164.536 52.2888C164.279 52.6032 164.04 53.1782 163.984 53.6142L163.961 53.7887L164.204 54.0331C164.668 54.4901 165.164 54.7136 165.724 54.7169C166.452 54.7205 167.099 54.3821 167.834 53.6111C168.159 53.2727 168.72 52.5403 168.886 52.2399L168.946 52.1353L168.527 51.9714C167.474 51.5667 166.528 51.4205 165.814 51.5561Z" fill="white"/>
<path d="M162.455 54.1406C162.292 54.2312 162.2 54.3187 162.064 54.5103C161.675 55.0515 161.399 55.9162 161.031 57.7475C160.277 61.4665 159.313 61.8383 157.938 63.6005C157.789 63.7918 157.633 63.9805 157.594 64.0152C157.557 64.0541 157.523 64.0955 157.523 64.1097C157.523 64.162 157.822 64.3223 158.081 64.4129C158.436 64.5351 159.035 64.5421 159.45 64.4235C159.955 64.2806 160.459 63.9982 160.887 63.6075L161.08 63.4329L161.054 63.5686C160.998 63.8511 161.031 64.3153 161.124 64.612C161.316 65.2013 161.685 65.7906 162.179 66.29C162.569 66.6836 162.565 66.6807 162.761 66.5197C163.332 66.042 163.893 65.1907 164.086 64.5069C164.15 64.2806 164.169 63.7954 164.123 63.5686L164.097 63.4329L164.289 63.6075C164.721 63.9982 165.222 64.2837 165.727 64.4235C166.131 64.5388 166.71 64.5388 167.056 64.4235C167.305 64.343 167.484 64.2594 167.599 64.1654C167.663 64.1162 167.657 64.1028 167.45 63.8653C165.999 62.1596 164.964 61.7037 164.166 57.8314C163.914 56.6106 163.804 56.157 163.635 55.6371C163.366 54.8177 163.07 54.3294 162.735 54.1512C162.585 54.0673 162.582 54.0673 162.455 54.1406Z" fill="white"/>
</g>
<path d="M72.0785 146.685H0.230469V159.445H72.0785V146.685Z" fill="white"/>
<path d="M172.434 146.685H100.586V159.445H172.434V146.685Z" fill="white"/>
<path d="M3.25936 130.498C2.59976 130.498 1.99122 130.376 1.43379 130.133C0.885657 129.88 0.435068 129.524 0.0820312 129.066L1.33625 127.551C1.60566 127.906 1.88903 128.177 2.18632 128.365C2.48361 128.543 2.80412 128.631 3.14788 128.631C4.06763 128.631 4.52751 128.089 4.52751 127.003V122.329H1.09934V120.505H6.77116V126.877C6.77116 128.093 6.47388 129 5.87929 129.599C5.2847 130.198 4.41139 130.498 3.25936 130.498ZM11.0775 124.463H15.7738V126.231H11.0775V124.463ZM11.2447 128.505H16.5542V130.329H9.00109V120.505H16.3731V122.329H11.2447V128.505ZM22.6845 130.498C21.3002 130.498 20.2179 130.11 19.4375 129.333C18.6571 128.557 18.2669 127.447 18.2669 126.007V120.505H20.5245V125.922C20.5245 126.857 20.715 127.531 21.0958 127.944C21.4768 128.355 22.011 128.561 22.6984 128.561C23.386 128.561 23.9202 128.355 24.3011 127.944C24.682 127.531 24.8724 126.857 24.8724 125.922V120.505H27.102V126.007C27.102 127.447 26.7118 128.557 25.9314 129.333C25.1512 130.11 24.0688 130.498 22.6845 130.498ZM29.333 130.329V120.505H31.2003L36.9559 127.578H36.05V120.505H38.2797V130.329H36.4264L30.6568 123.256H31.5628V130.329H29.333ZM42.6641 124.463H47.3605V126.231H42.6641V124.463ZM42.8314 128.505H48.1409V130.329H40.5877V120.505H47.9596V122.329H42.8314V128.505ZM53.1425 130.498C52.3619 130.498 51.6142 130.395 50.8988 130.189C50.1834 129.974 49.6074 129.698 49.1708 129.361L49.9372 127.648C50.3553 127.948 50.8475 128.196 51.4143 128.392C51.9904 128.58 52.5711 128.673 53.1563 128.673C53.6024 128.673 53.9599 128.631 54.2294 128.547C54.508 128.453 54.7126 128.327 54.8425 128.168C54.9725 128.009 55.0378 127.827 55.0378 127.621C55.0378 127.359 54.9355 127.153 54.7312 127.003C54.5267 126.844 54.2574 126.717 53.9229 126.624C53.5884 126.521 53.2166 126.428 52.808 126.344C52.4085 126.249 52.0044 126.138 51.5955 126.007C51.196 125.876 50.8292 125.707 50.4946 125.501C50.1601 125.295 49.8859 125.024 49.6723 124.687C49.4681 124.35 49.3658 123.92 49.3658 123.396C49.3658 122.834 49.5144 122.325 49.8119 121.866C50.1184 121.398 50.5736 121.028 51.1774 120.757C51.7908 120.476 52.5571 120.336 53.4768 120.336C54.0901 120.336 54.6939 120.411 55.2886 120.56C55.8831 120.702 56.4079 120.917 56.8633 121.206L56.1664 122.933C55.7112 122.671 55.256 122.479 54.8009 122.357C54.3454 122.226 53.8996 122.16 53.4628 122.16C53.0263 122.16 52.6685 122.212 52.3899 122.316C52.111 122.418 51.9114 122.554 51.7908 122.723C51.6698 122.881 51.6095 123.068 51.6095 123.284C51.6095 123.536 51.7118 123.742 51.9161 123.901C52.1203 124.051 52.3899 124.172 52.7244 124.266C53.0589 124.359 53.4258 124.453 53.8253 124.547C54.2338 124.64 54.638 124.748 55.0378 124.87C55.4463 124.992 55.8181 125.155 56.1526 125.361C56.4869 125.566 56.7564 125.838 56.9607 126.175C57.1743 126.511 57.2812 126.937 57.2812 127.452C57.2812 128.004 57.128 128.51 56.8214 128.968C56.5149 129.427 56.055 129.796 55.4417 130.076C54.8379 130.358 54.0715 130.498 53.1425 130.498ZM67.4391 130.498C66.6865 130.498 65.9851 130.376 65.3347 130.133C64.6936 129.88 64.1364 129.524 63.6624 129.066C63.1888 128.607 62.817 128.069 62.5475 127.452C62.2875 126.835 62.1576 126.156 62.1576 125.417C62.1576 124.678 62.2875 124 62.5475 123.382C62.817 122.764 63.1888 122.226 63.6624 121.767C64.1455 121.31 64.7076 120.958 65.3487 120.716C65.9897 120.463 66.6911 120.336 67.4531 120.336C68.2984 120.336 69.0602 120.486 69.7385 120.785C70.4259 121.075 71.002 121.505 71.4665 122.077L70.0171 123.424C69.6828 123.04 69.311 122.755 68.9022 122.567C68.4934 122.371 68.0476 122.273 67.5644 122.273C67.1093 122.273 66.6911 122.348 66.3103 122.497C65.9294 122.648 65.5995 122.863 65.321 123.143C65.0421 123.424 64.8238 123.756 64.6659 124.14C64.5173 124.524 64.443 124.949 64.443 125.417C64.443 125.885 64.5173 126.31 64.6659 126.694C64.8238 127.078 65.0421 127.41 65.321 127.691C65.5995 127.972 65.9294 128.186 66.3103 128.336C66.6911 128.486 67.1093 128.561 67.5644 128.561C68.0476 128.561 68.4934 128.467 68.9022 128.281C69.311 128.084 69.6828 127.789 70.0171 127.395L71.4665 128.743C71.002 129.314 70.4259 129.75 69.7385 130.049C69.0602 130.348 68.2938 130.498 67.4391 130.498ZM77.525 130.498C76.754 130.498 76.0386 130.372 75.3789 130.119C74.7285 129.866 74.162 129.511 73.6789 129.052C73.2048 128.593 72.8333 128.055 72.564 127.438C72.3035 126.821 72.1736 126.147 72.1736 125.417C72.1736 124.687 72.3035 124.014 72.564 123.396C72.8333 122.779 73.2095 122.241 73.6926 121.782C74.1757 121.323 74.7425 120.968 75.3929 120.716C76.0433 120.463 76.7491 120.336 77.511 120.336C78.2821 120.336 78.9884 120.463 79.6292 120.716C80.2796 120.968 80.8417 121.323 81.3155 121.782C81.7986 122.241 82.1748 122.779 82.4443 123.396C82.7136 124.004 82.8485 124.678 82.8485 125.417C82.8485 126.147 82.7136 126.825 82.4443 127.452C82.1748 128.069 81.7986 128.607 81.3155 129.066C80.8417 129.515 80.2796 129.866 79.6292 130.119C78.9884 130.372 78.2867 130.498 77.525 130.498ZM77.511 128.561C77.9476 128.561 78.3471 128.486 78.7095 128.336C79.0811 128.186 79.4063 127.972 79.6851 127.691C79.9637 127.41 80.1773 127.078 80.3259 126.694C80.4839 126.31 80.5628 125.885 80.5628 125.417C80.5628 124.949 80.4839 124.524 80.3259 124.14C80.1773 123.756 79.9637 123.424 79.6851 123.143C79.4156 122.863 79.0953 122.648 78.7235 122.497C78.3517 122.348 77.9476 122.273 77.511 122.273C77.0745 122.273 76.6703 122.348 76.2985 122.497C75.9363 122.648 75.6158 122.863 75.3372 123.143C75.0584 123.424 74.8398 123.756 74.6822 124.14C74.5335 124.524 74.459 124.949 74.459 125.417C74.459 125.876 74.5335 126.301 74.6822 126.694C74.8398 127.078 75.0537 127.41 75.3232 127.691C75.6018 127.972 75.927 128.186 76.2985 128.336C76.6703 128.486 77.0745 128.561 77.511 128.561ZM84.5451 130.329V120.505H86.4124L90.5653 127.438H89.5758L93.6591 120.505H95.5124L95.5403 130.329H93.4222L93.4082 123.774H93.7984L90.5374 129.291H89.5201L86.1895 123.774H86.6633V130.329H84.5451ZM97.8547 130.329V120.505H99.722L103.875 127.438H102.885L106.969 120.505H108.822L108.85 130.329H106.732L106.718 123.774H107.108L103.847 129.291H102.83L99.4991 123.774H99.9729V130.329H97.8547ZM115.498 130.498C114.114 130.498 113.032 130.11 112.251 129.333C111.471 128.557 111.081 127.447 111.081 126.007V120.505H113.338V125.922C113.338 126.857 113.529 127.531 113.91 127.944C114.291 128.355 114.825 128.561 115.513 128.561C116.2 128.561 116.734 128.355 117.115 127.944C117.496 127.531 117.687 126.857 117.687 125.922V120.505H119.916V126.007C119.916 127.447 119.526 128.557 118.745 129.333C117.965 130.11 116.883 130.498 115.498 130.498ZM122.147 130.329V120.505H124.014L129.77 127.578H128.864V120.505H131.094V130.329H129.24L123.471 123.256H124.377V130.329H122.147ZM133.401 130.329V120.505H135.659V130.329H133.401ZM141.179 130.498C140.399 130.498 139.651 130.395 138.936 130.189C138.22 129.974 137.644 129.698 137.207 129.361L137.974 127.648C138.393 127.948 138.885 128.196 139.451 128.392C140.027 128.58 140.608 128.673 141.193 128.673C141.639 128.673 141.997 128.631 142.267 128.547C142.545 128.453 142.749 128.327 142.879 128.168C143.009 128.009 143.075 127.827 143.075 127.621C143.075 127.359 142.972 127.153 142.768 127.003C142.563 126.844 142.294 126.717 141.96 126.624C141.625 126.521 141.254 126.428 140.845 126.344C140.446 126.249 140.041 126.138 139.633 126.007C139.233 125.876 138.866 125.707 138.532 125.501C138.197 125.295 137.924 125.024 137.71 124.687C137.505 124.35 137.403 123.92 137.403 123.396C137.403 122.834 137.551 122.325 137.849 121.866C138.156 121.398 138.611 121.028 139.215 120.757C139.827 120.476 140.594 120.336 141.514 120.336C142.128 120.336 142.731 120.411 143.325 120.56C143.92 120.702 144.445 120.917 144.9 121.206L144.204 122.933C143.748 122.671 143.293 122.479 142.838 122.357C142.383 122.226 141.937 122.16 141.5 122.16C141.063 122.16 140.706 122.212 140.427 122.316C140.148 122.418 139.948 122.554 139.827 122.723C139.707 122.881 139.647 123.068 139.647 123.284C139.647 123.536 139.749 123.742 139.954 123.901C140.157 124.051 140.427 124.172 140.762 124.266C141.096 124.359 141.463 124.453 141.862 124.547C142.271 124.64 142.675 124.748 143.075 124.87C143.484 124.992 143.855 125.155 144.19 125.361C144.524 125.566 144.793 125.838 144.998 126.175C145.212 126.511 145.319 126.937 145.319 127.452C145.319 128.004 145.165 128.51 144.859 128.968C144.552 129.427 144.092 129.796 143.479 130.076C142.875 130.358 142.108 130.498 141.179 130.498ZM148.746 130.329V122.357H145.624V120.505H154.125V122.357H151.003V130.329H148.746ZM157.416 124.463H162.113V126.231H157.416V124.463ZM157.584 128.505H162.893V130.329H155.338V120.505H162.711V122.329H157.584V128.505ZM167.895 130.498C167.113 130.498 166.366 130.395 165.651 130.189C164.935 129.974 164.359 129.698 163.922 129.361L164.69 127.648C165.108 127.948 165.599 128.196 166.166 128.392C166.742 128.58 167.324 128.673 167.909 128.673C168.354 128.673 168.711 128.631 168.98 128.547C169.26 128.453 169.464 128.327 169.594 128.168C169.725 128.009 169.79 127.827 169.79 127.621C169.79 127.359 169.686 127.153 169.483 127.003C169.279 126.844 169.009 126.717 168.675 126.624C168.34 126.521 167.969 126.428 167.559 126.344C167.159 126.249 166.756 126.138 166.348 126.007C165.949 125.876 165.581 125.707 165.247 125.501C164.912 125.295 164.637 125.024 164.425 124.687C164.22 124.35 164.119 123.92 164.119 123.396C164.119 122.834 164.267 122.325 164.564 121.866C164.871 121.398 165.325 121.028 165.931 120.757C166.542 120.476 167.308 120.336 168.228 120.336C168.841 120.336 169.446 120.411 170.04 120.56C170.635 120.702 171.16 120.917 171.614 121.206L170.917 122.933C170.463 122.671 170.008 122.479 169.553 122.357C169.096 122.226 168.652 122.16 168.215 122.16C167.778 122.16 167.42 122.212 167.141 122.316C166.863 122.418 166.664 122.554 166.542 122.723C166.421 122.881 166.362 123.068 166.362 123.284C166.362 123.536 166.463 123.742 166.669 123.901C166.872 124.051 167.141 124.172 167.477 124.266C167.81 124.359 168.178 124.453 168.578 124.547C168.985 124.64 169.39 124.748 169.79 124.87C170.198 124.992 170.57 125.155 170.904 125.361C171.239 125.566 171.509 125.838 171.713 126.175C171.927 126.511 172.032 126.937 172.032 127.452C172.032 128.004 171.88 128.51 171.574 128.968C171.267 129.427 170.807 129.796 170.193 130.076C169.59 130.358 168.823 130.498 167.895 130.498Z" fill="white"/>
<mask id="mask4_1113_540" style="mask-type:luminance" maskUnits="userSpaceOnUse" x="73" y="131" width="27" height="44">
<path d="M99.4367 131.281H73.2266V174.965H99.4367V131.281Z" fill="white"/>
</mask>
<g mask="url(#mask4_1113_540)">
<path d="M85.7373 132.039C84.1564 134.135 83.3763 135.882 83.3079 137.472C83.2463 138.817 83.5816 139.786 84.4233 140.694C84.9023 141.206 85.751 141.813 86.1754 141.942C86.4148 142.012 86.4627 141.998 86.9622 141.717C87.7081 141.294 88.5843 140.421 88.9126 139.765C89.4327 138.721 89.5215 137.37 89.1453 136.094C88.7893 134.865 87.6602 132.899 86.5311 131.52L86.319 131.261L85.7373 132.039Z" fill="white"/>
<path d="M77.141 141.287C76.224 141.431 75.0879 141.737 74.089 142.1L73.2266 142.42L73.3498 142.625C73.6918 143.212 74.8486 144.646 75.5192 145.307C77.0315 146.816 78.366 147.478 79.8645 147.471C81.0214 147.464 82.0409 147.028 82.9989 146.133L83.4986 145.655L83.4507 145.314C83.3821 144.775 83.1633 144.133 82.8552 143.533C82.3009 142.462 81.2471 141.649 80.0015 141.349C79.3584 141.191 77.9211 141.157 77.141 141.287Z" fill="white"/>
<path d="M92.9825 141.287C91.9355 141.472 90.9638 142.004 90.3478 142.721C89.8209 143.335 89.3282 144.461 89.2117 145.314L89.1641 145.655L89.6635 146.134C90.6215 147.028 91.6411 147.465 92.7979 147.472C94.2965 147.479 95.6309 146.816 97.1435 145.307C97.8138 144.646 98.9706 143.212 99.3126 142.625L99.4359 142.42L98.5734 142.1C96.4043 141.308 94.4539 141.021 92.9825 141.287Z" fill="white"/>
<path d="M86.0568 146.346C85.7215 146.523 85.5299 146.694 85.2493 147.069C84.4487 148.127 83.8807 149.82 83.121 153.403C81.5675 160.679 79.583 161.407 76.75 164.855C76.4419 165.23 76.1203 165.598 76.0382 165.666C75.9629 165.741 75.8945 165.824 75.8945 165.85C75.8945 165.954 76.5105 166.268 77.0441 166.445C77.7763 166.684 79.0082 166.698 79.8637 166.465C80.9037 166.185 81.944 165.632 82.8269 164.867L83.2238 164.527L83.1689 164.793C83.0527 165.346 83.121 166.254 83.3126 166.833C83.7095 167.987 84.4692 169.14 85.4888 170.116C86.2896 170.888 86.2826 170.881 86.6865 170.567C87.8635 169.632 89.0201 167.967 89.417 166.628C89.5469 166.185 89.5881 165.237 89.4923 164.793L89.4374 164.527L89.8343 164.867C90.7239 165.632 91.7573 166.192 92.7976 166.465C93.6326 166.691 94.8233 166.691 95.535 166.465C96.0482 166.308 96.4177 166.145 96.6572 165.959C96.7871 165.864 96.7737 165.838 96.3493 165.373C93.3586 162.035 91.2237 161.143 89.5811 153.567C89.0612 151.178 88.8352 150.291 88.4862 149.274C87.9318 147.67 87.3229 146.714 86.6316 146.366C86.3237 146.202 86.317 146.202 86.0568 146.346Z" fill="white"/>
</g>
</g>
</g>
</g>
<defs>
<clipPath id="clip0_1113_540">
<rect width="172.435" height="172.435" fill="white"/>
</clipPath>
</defs>
</svg>
