<svg width="743" height="743" viewBox="0 0 743 743" fill="none" xmlns="http://www.w3.org/2000/svg">
<path d="M371.792 90C457.833 90.0002 527.583 159.751 527.583 245.792C527.583 331.833 457.833 401.583 371.792 401.583C285.751 401.583 216 331.833 216 245.792C216 159.751 285.751 90 371.792 90ZM353.293 179.125H315.013C304.86 178.956 295.004 182.546 287.338 189.204C279.672 195.862 274.738 205.119 273.483 215.195C272.935 220.753 273.556 226.363 275.307 231.666C277.058 236.969 279.899 241.847 283.649 245.985C287.399 250.123 291.975 253.43 297.08 255.693C302.186 257.956 307.708 259.125 313.293 259.125V339.125C313.293 341.777 314.346 344.321 316.222 346.196C318.097 348.072 320.641 349.125 323.293 349.125H343.293C345.945 349.125 348.489 348.072 350.364 346.196C352.24 344.321 353.293 341.777 353.293 339.125V259.125L413.293 289.125V149.125L353.293 179.125ZM433.293 179.125C430.641 179.125 428.097 180.178 426.222 182.054C424.346 183.929 423.293 186.473 423.293 189.125C423.293 191.777 424.346 194.321 426.222 196.196C428.097 198.072 430.641 199.125 433.293 199.125C438.597 199.125 443.685 201.232 447.436 204.982C451.186 208.733 453.293 213.821 453.293 219.125C453.293 224.429 451.186 229.517 447.436 233.268C443.685 237.018 438.597 239.125 433.293 239.125C430.641 239.125 428.097 240.178 426.222 242.054C424.346 243.929 423.293 246.473 423.293 249.125C423.293 251.777 424.346 254.321 426.222 256.196C428.097 258.072 430.641 259.125 433.293 259.125C443.902 259.125 454.076 254.911 461.577 247.409C469.079 239.908 473.293 229.734 473.293 219.125C473.293 208.516 469.079 198.342 461.577 190.841C454.076 183.339 443.902 179.125 433.293 179.125Z" fill="#E93F3F"/>
<path d="M619.165 650.125C619.165 584.439 593.072 521.444 546.625 474.998C500.179 428.551 437.184 402.458 371.499 402.458C305.813 402.458 242.818 428.551 196.372 474.998C149.925 521.444 123.832 584.439 123.832 650.125" fill="#E93F3F" stroke="#E93F3F" stroke-width="2" stroke-linecap="round" stroke-linejoin="round"/>
</svg>
