<svg width="743" height="743" viewBox="0 0 743 743" fill="none" xmlns="http://www.w3.org/2000/svg">
<path d="M371.499 91.875C457.54 91.8752 527.29 161.626 527.29 247.667C527.29 333.708 457.54 403.458 371.499 403.458C285.458 403.458 215.707 333.708 215.707 247.667C215.707 161.626 285.458 91.875 371.499 91.875ZM289.527 184.317C290.803 215.538 302.79 258.311 335.355 280.877L337.633 282.45L336.805 285.059C335.48 289.241 333.575 292.926 330.594 295.741C327.571 298.557 323.596 300.379 318.71 301.248C309.394 302.904 296.293 301.58 276.521 298.061C272.547 308.039 273.089 319.012 276.699 327.914C280.31 336.734 286.757 343.068 294.132 344.725C304.421 331.558 319.911 315.575 341.152 316.527C362.684 317.48 387.321 311.518 401.979 296.818C407.154 291.684 411.584 279.303 414.151 268.413C416.719 257.523 417.754 248.124 417.754 248.124L418.002 245.599L420.486 244.936C429.43 242.617 440.196 240.506 452.245 234.419C448.684 232.017 444.503 229.201 439.658 226.303C432.246 221.914 424.089 218.105 420.072 217.649C413.199 216.946 409.307 218.187 406.615 220.175C403.965 222.162 402.226 225.227 400.694 228.912C399.204 232.597 398.045 236.779 395.975 240.547C393.863 244.356 390.177 247.917 384.877 248.497C361.69 251.188 341.898 239.014 325.294 223.611C311.63 210.941 299.796 195.952 289.527 184.317ZM445.248 245.599C442.308 246.675 439.492 247.627 436.801 248.414C436.055 251.271 435.269 254.128 434.482 256.985L441.687 258.973C442.929 254.542 444.13 250.07 445.248 245.599ZM344.962 167.933C341.939 176.321 339.041 187.547 337.219 198.644C335.894 206.883 335.024 215.082 334.858 222.204C347.446 232.928 361.069 240.671 376.182 241.375C362.435 219.637 350.096 191.687 344.962 167.933ZM420.031 151.279C417.381 165.312 422.847 173.8 433.529 178.731C435.434 182.114 437.008 185.476 438.25 188.83C431.915 181.783 424.462 178.351 414.234 183.398C420.073 194.834 428.975 196.822 439.699 193.096C442.266 201.791 442.887 210.32 442.308 218.933C442.308 219.015 442.308 219.099 442.267 219.182C442.68 219.43 443.094 219.637 443.467 219.885C445.496 221.086 447.484 222.328 449.389 223.57C449.554 222.204 449.678 220.796 449.761 219.43C450.258 212.142 449.927 204.772 448.395 197.277C459.491 199.389 466.199 193.716 470.257 183.356C460.237 182.28 451.666 183.862 447.359 192.847C446.283 188.955 444.875 185.021 443.095 181.062C452.908 174.5 458.705 166.127 453.86 153.063C444.544 156.595 439.989 162.227 438.83 169.407C436.925 160.356 431.749 153.594 420.031 151.279Z" fill="#E93F3F"/>
<path d="M619.165 650.125C619.165 584.439 593.072 521.444 546.625 474.998C500.179 428.551 437.184 402.458 371.499 402.458C305.813 402.458 242.818 428.551 196.372 474.998C149.925 521.444 123.832 584.439 123.832 650.125" fill="#E93F3F" stroke="#E93F3F" stroke-width="2" stroke-linecap="round" stroke-linejoin="round"/>
</svg>
