<svg width="743" height="743" viewBox="0 0 743 743" fill="none" xmlns="http://www.w3.org/2000/svg">
<path d="M371.499 91.875C457.54 91.8752 527.29 161.626 527.29 247.667C527.29 333.708 457.54 403.458 371.499 403.458C285.458 403.458 215.707 333.708 215.707 247.667C215.707 161.626 285.458 91.875 371.499 91.875ZM434.501 138.167L423.918 244L371.001 201.667V244L318.085 201.667V244L265.168 201.667V349.834H476.835V244L466.251 138.167H434.501ZM328.668 307.5V328.667H286.335V307.5H328.668ZM392.168 307.5V328.667H349.835V307.5H392.168ZM455.668 307.5V328.667H413.335V307.5H455.668ZM392.168 265.167V286.334H286.335V265.167H392.168ZM455.668 265.167V286.334H413.335V265.167H455.668Z" fill="#E93F3F"/>
<path d="M619.165 650.125C619.165 584.439 593.072 521.444 546.625 474.998C500.179 428.551 437.184 402.458 371.499 402.458C305.813 402.458 242.818 428.551 196.372 474.998C149.925 521.444 123.832 584.439 123.832 650.125" fill="#E93F3F" stroke="#E93F3F" stroke-width="2" stroke-linecap="round" stroke-linejoin="round"/>
</svg>
