<svg width="743" height="743" viewBox="0 0 743 743" fill="none" xmlns="http://www.w3.org/2000/svg">
<path d="M371.792 90C457.833 90.0002 527.583 159.751 527.583 245.792C527.583 331.833 457.833 401.583 371.792 401.583C285.751 401.583 216 331.833 216 245.792C216 159.751 285.751 90 371.792 90ZM380.774 133.425C365.847 135.378 372.712 138.53 364.604 135.821C357.271 144.702 355.013 154.217 353.23 158.999C346.265 160.925 339.049 163.213 333.539 167.937C330.199 169.643 327.772 172.809 324.767 174.706C322.766 178.946 316.419 175.871 315.101 180.619C314.708 184.957 309.31 185.337 307.048 188.473C301.168 195.707 295.075 203.174 291.479 211.829C290.13 214.717 291.121 218.497 287.412 219.824C284.347 223.278 282.345 227.82 281.084 232.252C280.748 235.864 281.869 239.265 282.406 242.712C282.533 248.348 278.365 252.68 276.934 257.718C276.662 259.972 280.455 261.189 277.413 262.71C275.615 264.846 277.937 268.157 279.484 268.793C271.283 271.845 260.258 273.731 257.119 283.169C254.93 290.012 262.251 295.357 268.512 294.957C271.725 295.737 275.242 293.098 278.149 294.506C281.526 301.999 285.159 310.174 292.232 314.938C294.078 317.82 295.88 320.977 298.703 322.862C300.368 327.739 297.958 332.884 294.839 336.414C293.851 342.026 293.594 347.831 292.175 353.31C292.864 358.768 299.475 358.532 303.615 358.604C311.254 359.144 316.703 352.549 318.494 345.729C319.217 342.626 321.373 339.548 325.054 341.142C334.084 342.566 343.248 344.876 352.372 343.337C359.468 343.009 368.694 344.313 373.684 338.17C374.222 336.126 374.163 336.084 375.578 337.558C379.109 339.737 385.622 336.907 384.462 332.254C386.665 332.48 389.444 331.253 390.989 331.218C391.611 335.302 396.704 334.799 398.951 332.428C401.077 329.841 403.554 327.579 407.148 327.872C410.166 327.575 412.609 324.931 414.447 323.308C419.218 328.972 421.74 336.364 426.443 342.14C433.466 351.467 427.267 351.497 436.424 358.942C435.368 367.941 441.525 368.229 449.976 364.867C466.463 360.658 449.965 359.424 461.844 362.518C455.778 342.56 446.341 327.277 437.267 308.486C438.178 303.056 443.554 299.681 445.188 294.39C450.377 285.443 455.949 276.424 460.075 267.116C466.223 265.574 474.642 269.977 479.272 263.847C481.248 260.036 479.994 255.358 482.495 251.551C482.492 244.774 473.463 243.602 469.163 246.843C467.24 247.777 465.986 246.883 467.189 244.744C469.528 235.148 473.488 225.176 470.748 215.153C470.266 207.612 470.062 199.463 465.747 193.09C465.434 182.44 456.952 173.852 448.294 168.924C444.878 166.765 441.125 170.353 438.157 167.386C427.288 161.559 394.807 151.13 384.677 152.714C384.952 150.091 378.237 141.988 380.774 133.425ZM361.029 275.959C370.005 274.42 379.022 272.483 388.136 272.729C394.485 273.857 394.038 282.117 396.899 286.592C400.326 294.181 406.376 301.85 405.476 310.546C399.76 314.696 392.633 316.53 386.012 318.597C369.193 322.085 350.972 319.313 335.451 312.153C330.475 310.189 335.199 304.792 335.696 301.217C338.426 294.162 340.488 286.518 343.878 279.873C348.955 276.746 355.456 277.757 361.029 275.959ZM317.05 280.178C315.667 284.128 313.235 287.661 311.801 291.54C310.163 289.508 306.784 286.412 307.808 283.76C311.05 282.718 314.652 282.395 317.152 279.841L317.05 280.178ZM419.359 269.677C425.231 267.681 431.903 268.622 437.864 268.401C435.226 274.526 429.661 278.97 427.337 285.451C426.366 289.123 426.067 282.96 425.014 282.185C423.195 278.036 420.738 274.055 419.359 269.677ZM343.454 202.882C335.25 219.465 330.61 237.421 325.544 255.037C324.393 257.237 324.387 261.344 320.949 260.317C317.177 261.415 313.026 261.396 309.249 262.695C306.8 261.585 303.822 264.138 302.023 263.87C301.716 254.4 303.175 244.697 305.884 235.679C308.807 230.734 314.456 226.175 313.078 219.863C315.964 215.856 317.621 210.457 322.769 208.568C325.637 206.197 329.165 209.504 331.96 206.893C335.74 203.263 340.818 201.669 345.312 198.951C344.693 200.261 344.073 201.572 343.454 202.882ZM366.418 228.115C367.251 227.383 368.181 223.86 369.053 224.425C373.385 231.177 377.562 238.221 381.107 245.487C381.522 247.285 384.774 250.974 381.158 250.557C377.303 250.946 372.997 250.929 369.689 253.03C365.695 250.479 361.61 255.058 357.368 253.643C353.729 254.548 354.058 252.238 355.438 249.771C359 242.494 362.811 235.372 366.418 228.115ZM396.608 181.365C402.326 183.4 408.686 183.536 414.473 184.423C417.147 187.529 421.308 187.902 424.902 186.703C429.159 186.688 433.238 188.6 437.2 189.511C439.582 195.455 447.49 196.875 448.896 203.469C455.218 217.66 455 235.594 446.466 248.651C436.286 248.837 425.704 246.249 415.734 249.166C413.025 249.462 408.688 249.537 408.709 245.872C405.642 236.005 399.034 227.585 396.11 217.664C393.287 207.828 389.647 198.233 387.17 188.195C388.111 184.033 393.912 184.441 396.193 181.23L396.608 181.365Z" fill="#E93F3F"/>
<path d="M619.165 650.125C619.165 584.439 593.072 521.444 546.625 474.998C500.179 428.551 437.184 402.458 371.499 402.458C305.813 402.458 242.818 428.551 196.372 474.998C149.925 521.444 123.832 584.439 123.832 650.125" fill="#E93F3F" stroke="#E93F3F" stroke-width="2" stroke-linecap="round" stroke-linejoin="round"/>
</svg>
