<svg width="743" height="743" viewBox="0 0 743 743" fill="none" xmlns="http://www.w3.org/2000/svg">
<path d="M371.499 91.875C457.54 91.8752 527.29 161.626 527.29 247.667C527.29 333.708 457.54 403.458 371.499 403.458C285.458 403.458 215.707 333.708 215.707 247.667C215.707 161.626 285.458 91.875 371.499 91.875ZM282.092 264.144C276.14 264.144 271 268.997 271 275.199C271 281.132 275.87 286.256 282.092 286.256H308.332V312.412C308.332 318.344 313.201 323.468 319.423 323.468C322.399 323.468 325.104 322.119 327.269 320.231C329.162 318.344 330.515 315.378 330.515 312.412V275.47C330.515 272.504 329.162 269.807 327.269 267.649C324.834 265.223 322.128 264.144 319.152 264.144H282.092ZM371.631 173C365.679 173 360.539 177.854 360.539 184.056C360.539 189.988 365.409 195.111 371.631 195.111H397.539V301.467H419.657V261.915C425.392 268.103 431.945 270.525 440.956 270.525C449.694 270.525 457.613 267.566 462.528 262.723C471.266 254.113 471.539 239.045 471.539 225.861C471.539 212.947 471.266 197.879 462.528 189.27C457.613 184.426 449.694 181.467 440.956 181.467C432.292 181.467 425.769 183.577 420.054 189.325V184.325C420.054 181.359 418.701 178.663 416.808 176.506C414.914 174.349 411.938 173 408.692 173H371.631ZM327.003 218.568C321.051 218.568 315.911 223.422 315.911 229.624C315.911 235.556 320.781 240.68 327.003 240.68H353.243V266.836C353.243 272.768 358.113 277.892 364.335 277.892C367.31 277.892 370.016 276.544 372.18 274.656C374.073 272.769 375.426 269.802 375.426 266.836V229.894C375.426 226.927 374.073 224.23 372.18 222.073C369.745 219.916 367.04 218.568 364.064 218.568H327.003ZM434.402 201.108C447.782 201.108 449.421 211.871 449.421 226.131C449.421 240.391 447.782 251.153 434.402 251.153C421.023 251.153 419.384 240.391 419.384 226.131C419.384 225.732 419.385 225.336 419.389 224.942C419.81 223.771 420.054 222.52 420.054 221.268V215.029C421.362 206.641 425.005 201.108 434.402 201.108Z" fill="#E93F3F"/>
<path d="M619.165 650.125C619.165 584.439 593.072 521.444 546.625 474.998C500.179 428.551 437.184 402.458 371.499 402.458C305.813 402.458 242.818 428.551 196.372 474.998C149.925 521.444 123.832 584.439 123.832 650.125" fill="#E93F3F" stroke="#E93F3F" stroke-width="2" stroke-linecap="round" stroke-linejoin="round"/>
</svg>
