<svg width="743" height="743" viewBox="0 0 743 743" fill="none" xmlns="http://www.w3.org/2000/svg">
<path d="M371.499 91.875C457.54 91.8752 527.29 161.626 527.29 247.667C527.29 333.708 457.54 403.458 371.499 403.458C285.458 403.458 215.707 333.708 215.707 247.667C215.707 161.626 285.458 91.875 371.499 91.875ZM438.5 156.375C425.669 156.391 413.055 159.684 401.854 165.942C390.654 172.201 381.237 181.218 374.498 192.137C366.6 177.732 347.673 156.375 304.5 156.375C302.279 156.375 300.149 157.258 298.578 158.828C297.008 160.399 296.125 162.529 296.125 164.75C296.125 166.316 296.402 203.224 320.069 217.855C326.856 221.462 334.392 223.429 342.075 223.6C349.758 223.77 357.375 222.139 364.314 218.836C363.548 223.098 363.15 227.419 363.125 231.75V248.5H321.25C319.029 248.5 316.899 249.383 315.328 250.953C313.758 252.524 312.875 254.654 312.875 256.875V282C312.875 284.221 313.758 286.351 315.328 287.922C316.899 289.492 319.029 290.375 321.25 290.375H329.625V332.25C329.625 334.471 330.508 336.601 332.078 338.172C333.649 339.742 335.779 340.625 338 340.625H405C407.221 340.625 409.351 339.742 410.922 338.172C412.492 336.601 413.375 334.471 413.375 332.25V290.375H421.75C423.971 290.375 426.101 289.492 427.672 287.922C429.242 286.351 430.125 284.221 430.125 282V256.875C430.125 254.654 429.242 252.524 427.672 250.953C426.101 249.383 423.971 248.5 421.75 248.5H379.875V231.75C379.893 216.207 386.075 201.306 397.065 190.315C408.056 179.325 422.957 173.143 438.5 173.125C440.721 173.125 442.851 172.242 444.422 170.672C445.992 169.101 446.875 166.971 446.875 164.75C446.875 162.529 445.992 160.399 444.422 158.828C442.851 157.258 440.721 156.375 438.5 156.375ZM396.625 323.875H346.375V290.375H396.625V323.875ZM413.375 273.625H329.625V265.25H413.375V273.625ZM313.62 173.485C344.699 176.266 356.743 192.94 361.081 202.194C347.388 207.864 336.593 208.358 328.913 203.635C319.249 197.68 315.128 183.678 313.62 173.485Z" fill="#E93F3F"/>
<path d="M619.165 650.125C619.165 584.439 593.072 521.444 546.625 474.998C500.179 428.551 437.184 402.458 371.499 402.458C305.813 402.458 242.818 428.551 196.372 474.998C149.925 521.444 123.832 584.439 123.832 650.125" fill="#E93F3F" stroke="#E93F3F" stroke-width="2" stroke-linecap="round" stroke-linejoin="round"/>
</svg>
